<?xml version="1.0" encoding="utf-8" standalone="no"?>
<!DOCTYPE svg PUBLIC "-//W3C//DTD SVG 1.1//EN"
        "http://www.w3.org/Graphics/SVG/1.1/DTD/svg11.dtd">
<svg xmlns:xlink="http://www.w3.org/1999/xlink" width="720pt" height="576pt" viewBox="0 0 720 576" xmlns="http://www.w3.org/2000/svg" version="1.1">
    <metadata>
        <rdf:RDF xmlns:dc="http://purl.org/dc/elements/1.1/" xmlns:cc="http://creativecommons.org/ns#" xmlns:rdf="http://www.w3.org/1999/02/22-rdf-syntax-ns#">
            <cc:Work>
                <dc:type rdf:resource="http://purl.org/dc/dcmitype/StillImage"/>
                <dc:date>2023-04-04T16:20:37.865272</dc:date>
                <dc:format>image/svg+xml</dc:format>
                <dc:creator>
                    <cc:Agent>
                        <dc:title>Matplotlib v3.7.1, https://matplotlib.org/</dc:title>
                    </cc:Agent>
                </dc:creator>
            </cc:Work>
        </rdf:RDF>
    </metadata>
    <defs>
        <style type="text/css">*{stroke-linejoin: round; stroke-linecap: butt}</style>
    </defs>
    <g id="figure_1">
        <g id="patch_1">
            <path d="M 0 576
L 720 576 
L 720 0 
L 0 0 
z
" style="fill: #ffffff"/>
        </g>
        <g id="axes_1">
            <g id="patch_2">
                <path d="M 90 512.64
L 648 512.64 
L 648 69.12 
L 90 69.12 
z
" style="fill: #eaeaf2"/>
            </g>
            <g id="matplotlib.axis_1">
                <g id="xtick_1">
                    <g id="line2d_1">
                        <path d="M 229.5 512.64
L 229.5 69.12 
" clip-path="url(#pec8a8f2bf0)" style="fill: none; stroke: #ffffff; stroke-linecap: round"/>
                    </g>
                    <g id="text_1">
                        <!-- true triplets -->
                        <g style="fill: #262626" transform="translate(175.094687 537.887187) scale(0.22 -0.22)">
                            <defs>
                                <path id="ArialMT-74" d="M 1650 503
L 1731 6 
Q 1494 -44 1306 -44 
Q 1000 -44 831 53 
Q 663 150 594 308 
Q 525 466 525 972 
L 525 2881 
L 113 2881 
L 113 3319 
L 525 3319 
L 525 4141 
L 1084 4478 
L 1084 3319 
L 1650 3319 
L 1650 2881 
L 1084 2881 
L 1084 941 
Q 1084 700 1114 631 
Q 1144 563 1211 522 
Q 1278 481 1403 481 
Q 1497 481 1650 503 
z
" transform="scale(0.015625)"/>
                                <path id="ArialMT-72" d="M 416 0
L 416 3319 
L 922 3319 
L 922 2816 
Q 1116 3169 1280 3281 
Q 1444 3394 1641 3394 
Q 1925 3394 2219 3213 
L 2025 2691 
Q 1819 2813 1613 2813 
Q 1428 2813 1281 2702 
Q 1134 2591 1072 2394 
Q 978 2094 978 1738 
L 978 0 
L 416 0 
z
" transform="scale(0.015625)"/>
                                <path id="ArialMT-75" d="M 2597 0
L 2597 488 
Q 2209 -75 1544 -75 
Q 1250 -75 995 37 
Q 741 150 617 320 
Q 494 491 444 738 
Q 409 903 409 1263 
L 409 3319 
L 972 3319 
L 972 1478 
Q 972 1038 1006 884 
Q 1059 663 1231 536 
Q 1403 409 1656 409 
Q 1909 409 2131 539 
Q 2353 669 2445 892 
Q 2538 1116 2538 1541 
L 2538 3319 
L 3100 3319 
L 3100 0 
L 2597 0 
z
" transform="scale(0.015625)"/>
                                <path id="ArialMT-65" d="M 2694 1069
L 3275 997 
Q 3138 488 2766 206 
Q 2394 -75 1816 -75 
Q 1088 -75 661 373 
Q 234 822 234 1631 
Q 234 2469 665 2931 
Q 1097 3394 1784 3394 
Q 2450 3394 2872 2941 
Q 3294 2488 3294 1666 
Q 3294 1616 3291 1516 
L 816 1516 
Q 847 969 1125 678 
Q 1403 388 1819 388 
Q 2128 388 2347 550 
Q 2566 713 2694 1069 
z
M 847 1978 
L 2700 1978 
Q 2663 2397 2488 2606 
Q 2219 2931 1791 2931 
Q 1403 2931 1139 2672 
Q 875 2413 847 1978 
z
" transform="scale(0.015625)"/>
                                <path id="ArialMT-20" transform="scale(0.015625)"/>
                                <path id="ArialMT-69" d="M 425 3934
L 425 4581 
L 988 4581 
L 988 3934 
L 425 3934 
z
M 425 0 
L 425 3319 
L 988 3319 
L 988 0 
L 425 0 
z
" transform="scale(0.015625)"/>
                                <path id="ArialMT-70" d="M 422 -1272
L 422 3319 
L 934 3319 
L 934 2888 
Q 1116 3141 1344 3267 
Q 1572 3394 1897 3394 
Q 2322 3394 2647 3175 
Q 2972 2956 3137 2557 
Q 3303 2159 3303 1684 
Q 3303 1175 3120 767 
Q 2938 359 2589 142 
Q 2241 -75 1856 -75 
Q 1575 -75 1351 44 
Q 1128 163 984 344 
L 984 -1272 
L 422 -1272 
z
M 931 1641 
Q 931 1000 1190 694 
Q 1450 388 1819 388 
Q 2194 388 2461 705 
Q 2728 1022 2728 1688 
Q 2728 2322 2467 2637 
Q 2206 2953 1844 2953 
Q 1484 2953 1207 2617 
Q 931 2281 931 1641 
z
" transform="scale(0.015625)"/>
                                <path id="ArialMT-6c" d="M 409 0
L 409 4581 
L 972 4581 
L 972 0 
L 409 0 
z
" transform="scale(0.015625)"/>
                                <path id="ArialMT-73" d="M 197 991
L 753 1078 
Q 800 744 1014 566 
Q 1228 388 1613 388 
Q 2000 388 2187 545 
Q 2375 703 2375 916 
Q 2375 1106 2209 1216 
Q 2094 1291 1634 1406 
Q 1016 1563 777 1677 
Q 538 1791 414 1992 
Q 291 2194 291 2438 
Q 291 2659 392 2848 
Q 494 3038 669 3163 
Q 800 3259 1026 3326 
Q 1253 3394 1513 3394 
Q 1903 3394 2198 3281 
Q 2494 3169 2634 2976 
Q 2775 2784 2828 2463 
L 2278 2388 
Q 2241 2644 2061 2787 
Q 1881 2931 1553 2931 
Q 1166 2931 1000 2803 
Q 834 2675 834 2503 
Q 834 2394 903 2306 
Q 972 2216 1119 2156 
Q 1203 2125 1616 2013 
Q 2213 1853 2448 1751 
Q 2684 1650 2818 1456 
Q 2953 1263 2953 975 
Q 2953 694 2789 445 
Q 2625 197 2315 61 
Q 2006 -75 1616 -75 
Q 969 -75 630 194 
Q 291 463 197 991 
z
" transform="scale(0.015625)"/>
                            </defs>
                            <use xlink:href="#ArialMT-74"/>
                            <use xlink:href="#ArialMT-72" x="27.783203"/>
                            <use xlink:href="#ArialMT-75" x="61.083984"/>
                            <use xlink:href="#ArialMT-65" x="116.699219"/>
                            <use xlink:href="#ArialMT-20" x="172.314453"/>
                            <use xlink:href="#ArialMT-74" x="200.097656"/>
                            <use xlink:href="#ArialMT-72" x="227.880859"/>
                            <use xlink:href="#ArialMT-69" x="261.181641"/>
                            <use xlink:href="#ArialMT-70" x="283.398438"/>
                            <use xlink:href="#ArialMT-6c" x="339.013672"/>
                            <use xlink:href="#ArialMT-65" x="361.230469"/>
                            <use xlink:href="#ArialMT-74" x="416.845703"/>
                            <use xlink:href="#ArialMT-73" x="444.628906"/>
                        </g>
                    </g>
                </g>
                <g id="xtick_2">
                    <g id="line2d_2">
                        <path d="M 508.5 512.64
L 508.5 69.12 
" clip-path="url(#pec8a8f2bf0)" style="fill: none; stroke: #ffffff; stroke-linecap: round"/>
                    </g>
                    <g id="text_2">
                        <!-- false triplets -->
                        <g style="fill: #262626" transform="translate(449.813281 538.155313) scale(0.22 -0.22)">
                            <defs>
                                <path id="ArialMT-66" d="M 556 0
L 556 2881 
L 59 2881 
L 59 3319 
L 556 3319 
L 556 3672 
Q 556 4006 616 4169 
Q 697 4388 901 4523 
Q 1106 4659 1475 4659 
Q 1713 4659 2000 4603 
L 1916 4113 
Q 1741 4144 1584 4144 
Q 1328 4144 1222 4034 
Q 1116 3925 1116 3625 
L 1116 3319 
L 1763 3319 
L 1763 2881 
L 1116 2881 
L 1116 0 
L 556 0 
z
" transform="scale(0.015625)"/>
                                <path id="ArialMT-61" d="M 2588 409
Q 2275 144 1986 34 
Q 1697 -75 1366 -75 
Q 819 -75 525 192 
Q 231 459 231 875 
Q 231 1119 342 1320 
Q 453 1522 633 1644 
Q 813 1766 1038 1828 
Q 1203 1872 1538 1913 
Q 2219 1994 2541 2106 
Q 2544 2222 2544 2253 
Q 2544 2597 2384 2738 
Q 2169 2928 1744 2928 
Q 1347 2928 1158 2789 
Q 969 2650 878 2297 
L 328 2372 
Q 403 2725 575 2942 
Q 747 3159 1072 3276 
Q 1397 3394 1825 3394 
Q 2250 3394 2515 3294 
Q 2781 3194 2906 3042 
Q 3031 2891 3081 2659 
Q 3109 2516 3109 2141 
L 3109 1391 
Q 3109 606 3145 398 
Q 3181 191 3288 0 
L 2700 0 
Q 2613 175 2588 409 
z
M 2541 1666 
Q 2234 1541 1622 1453 
Q 1275 1403 1131 1340 
Q 988 1278 909 1158 
Q 831 1038 831 891 
Q 831 666 1001 516 
Q 1172 366 1500 366 
Q 1825 366 2078 508 
Q 2331 650 2450 897 
Q 2541 1088 2541 1459 
L 2541 1666 
z
" transform="scale(0.015625)"/>
                            </defs>
                            <use xlink:href="#ArialMT-66"/>
                            <use xlink:href="#ArialMT-61" x="27.783203"/>
                            <use xlink:href="#ArialMT-6c" x="83.398438"/>
                            <use xlink:href="#ArialMT-73" x="105.615234"/>
                            <use xlink:href="#ArialMT-65" x="155.615234"/>
                            <use xlink:href="#ArialMT-20" x="211.230469"/>
                            <use xlink:href="#ArialMT-74" x="239.013672"/>
                            <use xlink:href="#ArialMT-72" x="266.796875"/>
                            <use xlink:href="#ArialMT-69" x="300.097656"/>
                            <use xlink:href="#ArialMT-70" x="322.314453"/>
                            <use xlink:href="#ArialMT-6c" x="377.929688"/>
                            <use xlink:href="#ArialMT-65" x="400.146484"/>
                            <use xlink:href="#ArialMT-74" x="455.761719"/>
                            <use xlink:href="#ArialMT-73" x="483.544922"/>
                        </g>
                    </g>
                </g>
                <g id="text_3">
                    <!-- predicted label -->
                    <g style="fill: #262626" transform="translate(290.953125 563.706563) scale(0.24 -0.24)">
                        <defs>
                            <path id="ArialMT-64" d="M 2575 0
L 2575 419 
Q 2259 -75 1647 -75 
Q 1250 -75 917 144 
Q 584 363 401 755 
Q 219 1147 219 1656 
Q 219 2153 384 2558 
Q 550 2963 881 3178 
Q 1213 3394 1622 3394 
Q 1922 3394 2156 3267 
Q 2391 3141 2538 2938 
L 2538 4581 
L 3097 4581 
L 3097 0 
L 2575 0 
z
M 797 1656 
Q 797 1019 1065 703 
Q 1334 388 1700 388 
Q 2069 388 2326 689 
Q 2584 991 2584 1609 
Q 2584 2291 2321 2609 
Q 2059 2928 1675 2928 
Q 1300 2928 1048 2622 
Q 797 2316 797 1656 
z
" transform="scale(0.015625)"/>
                            <path id="ArialMT-63" d="M 2588 1216
L 3141 1144 
Q 3050 572 2676 248 
Q 2303 -75 1759 -75 
Q 1078 -75 664 370 
Q 250 816 250 1647 
Q 250 2184 428 2587 
Q 606 2991 970 3192 
Q 1334 3394 1763 3394 
Q 2303 3394 2647 3120 
Q 2991 2847 3088 2344 
L 2541 2259 
Q 2463 2594 2264 2762 
Q 2066 2931 1784 2931 
Q 1359 2931 1093 2626 
Q 828 2322 828 1663 
Q 828 994 1084 691 
Q 1341 388 1753 388 
Q 2084 388 2306 591 
Q 2528 794 2588 1216 
z
" transform="scale(0.015625)"/>
                            <path id="ArialMT-62" d="M 941 0
L 419 0 
L 419 4581 
L 981 4581 
L 981 2947 
Q 1338 3394 1891 3394 
Q 2197 3394 2470 3270 
Q 2744 3147 2920 2923 
Q 3097 2700 3197 2384 
Q 3297 2069 3297 1709 
Q 3297 856 2875 390 
Q 2453 -75 1863 -75 
Q 1275 -75 941 416 
L 941 0 
z
M 934 1684 
Q 934 1088 1097 822 
Q 1363 388 1816 388 
Q 2184 388 2453 708 
Q 2722 1028 2722 1663 
Q 2722 2313 2464 2622 
Q 2206 2931 1841 2931 
Q 1472 2931 1203 2611 
Q 934 2291 934 1684 
z
" transform="scale(0.015625)"/>
                        </defs>
                        <use xlink:href="#ArialMT-70"/>
                        <use xlink:href="#ArialMT-72" x="55.615234"/>
                        <use xlink:href="#ArialMT-65" x="88.916016"/>
                        <use xlink:href="#ArialMT-64" x="144.53125"/>
                        <use xlink:href="#ArialMT-69" x="200.146484"/>
                        <use xlink:href="#ArialMT-63" x="222.363281"/>
                        <use xlink:href="#ArialMT-74" x="272.363281"/>
                        <use xlink:href="#ArialMT-65" x="300.146484"/>
                        <use xlink:href="#ArialMT-64" x="355.761719"/>
                        <use xlink:href="#ArialMT-20" x="411.376953"/>
                        <use xlink:href="#ArialMT-6c" x="439.160156"/>
                        <use xlink:href="#ArialMT-61" x="461.376953"/>
                        <use xlink:href="#ArialMT-62" x="516.992188"/>
                        <use xlink:href="#ArialMT-65" x="572.607422"/>
                        <use xlink:href="#ArialMT-6c" x="628.222656"/>
                    </g>
                </g>
            </g>
            <g id="matplotlib.axis_2">
                <g id="ytick_1">
                    <g id="line2d_3">
                        <path d="M 90 180
L 648 180 
" clip-path="url(#pec8a8f2bf0)" style="fill: none; stroke: #ffffff; stroke-linecap: round"/>
                    </g>
                    <g id="text_4">
                        <!-- true triplets -->
                        <g style="fill: #262626" transform="translate(76.1275 234.405312) rotate(-90) scale(0.22 -0.22)">
                            <use xlink:href="#ArialMT-74"/>
                            <use xlink:href="#ArialMT-72" x="27.783203"/>
                            <use xlink:href="#ArialMT-75" x="61.083984"/>
                            <use xlink:href="#ArialMT-65" x="116.699219"/>
                            <use xlink:href="#ArialMT-20" x="172.314453"/>
                            <use xlink:href="#ArialMT-74" x="200.097656"/>
                            <use xlink:href="#ArialMT-72" x="227.880859"/>
                            <use xlink:href="#ArialMT-69" x="261.181641"/>
                            <use xlink:href="#ArialMT-70" x="283.398438"/>
                            <use xlink:href="#ArialMT-6c" x="339.013672"/>
                            <use xlink:href="#ArialMT-65" x="361.230469"/>
                            <use xlink:href="#ArialMT-74" x="416.845703"/>
                            <use xlink:href="#ArialMT-73" x="444.628906"/>
                        </g>
                    </g>
                </g>
                <g id="ytick_2">
                    <g id="line2d_4">
                        <path d="M 90 401.76
L 648 401.76 
" clip-path="url(#pec8a8f2bf0)" style="fill: none; stroke: #ffffff; stroke-linecap: round"/>
                    </g>
                    <g id="text_5">
                        <!-- false triplets -->
                        <g style="fill: #262626" transform="translate(76.1275 460.446719) rotate(-90) scale(0.22 -0.22)">
                            <use xlink:href="#ArialMT-66"/>
                            <use xlink:href="#ArialMT-61" x="27.783203"/>
                            <use xlink:href="#ArialMT-6c" x="83.398438"/>
                            <use xlink:href="#ArialMT-73" x="105.615234"/>
                            <use xlink:href="#ArialMT-65" x="155.615234"/>
                            <use xlink:href="#ArialMT-20" x="211.230469"/>
                            <use xlink:href="#ArialMT-74" x="239.013672"/>
                            <use xlink:href="#ArialMT-72" x="266.796875"/>
                            <use xlink:href="#ArialMT-69" x="300.097656"/>
                            <use xlink:href="#ArialMT-70" x="322.314453"/>
                            <use xlink:href="#ArialMT-6c" x="377.929688"/>
                            <use xlink:href="#ArialMT-65" x="400.146484"/>
                            <use xlink:href="#ArialMT-74" x="455.761719"/>
                            <use xlink:href="#ArialMT-73" x="483.544922"/>
                        </g>
                    </g>
                </g>
                <g id="text_6">
                    <!-- true label -->
                    <g style="fill: #262626" transform="translate(51.342187 340.24125) rotate(-90) scale(0.24 -0.24)">
                        <use xlink:href="#ArialMT-74"/>
                        <use xlink:href="#ArialMT-72" x="27.783203"/>
                        <use xlink:href="#ArialMT-75" x="61.083984"/>
                        <use xlink:href="#ArialMT-65" x="116.699219"/>
                        <use xlink:href="#ArialMT-20" x="172.314453"/>
                        <use xlink:href="#ArialMT-6c" x="200.097656"/>
                        <use xlink:href="#ArialMT-61" x="222.314453"/>
                        <use xlink:href="#ArialMT-62" x="277.929688"/>
                        <use xlink:href="#ArialMT-65" x="333.544922"/>
                        <use xlink:href="#ArialMT-6c" x="389.160156"/>
                    </g>
                </g>
            </g>
            <g id="QuadMesh_1">
                <path d="M 90 69.12
L 369 69.12 
L 369 290.88 
L 90 290.88 
L 90 69.12 
" clip-path="url(#pec8a8f2bf0)" style="fill: #ebccb7"/>
                <path d="M 369 69.12
L 648 69.12 
L 648 290.88 
L 369 290.88 
L 369 69.12 
" clip-path="url(#pec8a8f2bf0)" style="fill: #ebccb7"/>
                <path d="M 90 290.88
L 369 290.88 
L 369 512.64 
L 90 512.64 
L 90 290.88 
" clip-path="url(#pec8a8f2bf0)" style="fill: #ebccb7"/>
                <path d="M 369 290.88
L 648 290.88 
L 648 512.64 
L 369 512.64 
L 369 290.88 
" clip-path="url(#pec8a8f2bf0)" style="fill: #ebccb7"/>
            </g>
            <g id="text_7">
                <!-- 0 -->
                <g style="fill: #262626" transform="translate(222.826875 186.204375) scale(0.24 -0.24)">
                    <defs>
                        <path id="ArialMT-30" d="M 266 2259
Q 266 3072 433 3567 
Q 600 4063 929 4331 
Q 1259 4600 1759 4600 
Q 2128 4600 2406 4451 
Q 2684 4303 2865 4023 
Q 3047 3744 3150 3342 
Q 3253 2941 3253 2259 
Q 3253 1453 3087 958 
Q 2922 463 2592 192 
Q 2263 -78 1759 -78 
Q 1097 -78 719 397 
Q 266 969 266 2259 
z
M 844 2259 
Q 844 1131 1108 757 
Q 1372 384 1759 384 
Q 2147 384 2411 759 
Q 2675 1134 2675 2259 
Q 2675 3391 2411 3762 
Q 2147 4134 1753 4134 
Q 1366 4134 1134 3806 
Q 844 3388 844 2259 
z
" transform="scale(0.015625)"/>
                    </defs>
                    <use xlink:href="#ArialMT-30"/>
                </g>
            </g>
            <g id="text_8">
                <!-- 0 -->
                <g style="fill: #262626" transform="translate(501.826875 186.204375) scale(0.24 -0.24)">
                    <use xlink:href="#ArialMT-30"/>
                </g>
            </g>
            <g id="text_9">
                <!-- 0 -->
                <g style="fill: #262626" transform="translate(222.826875 407.964375) scale(0.24 -0.24)">
                    <use xlink:href="#ArialMT-30"/>
                </g>
            </g>
            <g id="text_10">
                <!-- 0 -->
                <g style="fill: #262626" transform="translate(501.826875 407.964375) scale(0.24 -0.24)">
                    <use xlink:href="#ArialMT-30"/>
                </g>
            </g>
        </g>
    </g>
    <defs>
        <clipPath id="pec8a8f2bf0">
            <rect x="90" y="69.12" width="558" height="443.52"/>
        </clipPath>
    </defs>
</svg>
